<svg xmlns="http://www.w3.org/2000/svg" version="1.2" viewBox="0 0 1190 259" width="1190" height="259">
	<title>_תמונת נושא  hevruta (1)</title>
	<style>
		.s0 { fill: #5ce1e6 } 
	</style>
	<g>
		<g>
			<g>
				<path class="s0" d="m5.9 256.3v-253.3h52.2v118.1h0.6q20.3-20.3 43.3-20.3 11.2 0 22.2 3 11.1 2.9 21.2 9.1 10.2 6.2 16.5 17.5 6.3 11.3 6.3 26.4v99.5h-52.1v-85.4q0-11.8-7.5-20.6-7.5-8.9-19.6-8.9-11.8 0-21.4 9.2-9.5 9.1-9.5 20.3v85.4z"/>
			</g>
		</g>
	</g>
	<g>
		<g>
			<g>
				<path class="s0" d="m353.5 188h-109.6q0 15.9 10.3 23.6 10.4 7.6 22.4 7.6 12.7 0 20-3.4 7.4-3.4 16.8-13.4l37.7 18.9q-23.5 39.4-78.3 39.4-34.2 0-58.6-23.4-24.5-23.4-24.5-56.4 0-33 24.5-56.5 24.4-23.6 58.6-23.6 35.9 0 58.5 20.8 22.5 20.7 22.5 59.3 0 5.3-0.3 7.1zm-108.1-28.9h57.4q-1.7-11.8-9.2-18.1-7.5-6.3-19.3-6.3-13 0-20.7 6.8-7.6 6.7-8.2 17.6z"/>
			</g>
		</g>
	</g>
	<g>
		<g>
			<g>
				<path class="s0" d="m416.5 105.2l36.8 82.2 36.9-82.2h61.8l-81 151.1h-35.3l-81-151.1z"/>
			</g>
		</g>
	</g>
	<g>
		<g>
			<g>
				<path class="s0" d="m563.8 256.3v-151.1h52.1v21.8h0.6q0.6-1.2 1.9-2.9 1.4-1.8 5.8-6.2 4.4-4.4 9.4-8 5-3.5 13-6.3 7.9-2.8 16.2-2.8 8.5 0 16.7 2.4 8.3 2.3 12.1 4.7l4.1 2.3-21.8 44.2q-9.7-8.2-27-8.2-9.5 0-16.3 4.1-6.7 4.1-9.5 10-2.8 5.9-4 10-1.2 4.1-1.2 6.5v79.5z"/>
			</g>
		</g>
	</g>
	<g>
		<g>
			<g>
				<path class="s0" d="m759.7 105.2v71.9q0 22.4 6.7 31.8 6.8 9.4 23 9.4 16.2 0 23-9.4 6.8-9.4 6.8-31.8v-71.9h52.1v84.6q0 37.7-19.6 54.3-19.6 16.6-62.3 16.6-42.7 0-62.3-16.6-19.6-16.6-19.6-54.3v-84.6z"/>
			</g>
		</g>
	</g>
	<g>
		<g>
			<g>
				<path class="s0" d="m912.5 105.2v-56.2h52.2v56.2h31.8v39.8h-31.8v48q0 20.9 11.7 20.9 3 0 6.2-1.2 3.3-1.1 5-2.3l1.8-1.2 13 42.1q-16.8 9.4-38.3 9.4-14.8 0-25.4-5.1-10.6-5.2-16-13.9-5.5-8.6-7.8-18.2-2.4-9.6-2.4-20.5v-58h-21.8v-39.8z"/>
			</g>
		</g>
	</g>
	<g>
		<g>
			<g>
				<path class="s0" d="m1030.3 237.6q-21.2-23.1-21.2-56.7 0-33.6 21.2-56.8 21.2-23.3 53.9-23.3 30.1 0 49.5 18.9v-14.5h52.2v151.1h-51.6v-17.1h-0.6q-19.4 21.5-49.5 21.5-32.7 0-53.9-23.1zm44.4-82.3q-10.2 10-10.2 25.6 0 15.6 9.7 25.5 9.7 9.9 25.7 9.9 15.3 0 25.1-10.1 9.9-10 9.9-25.3 0-15.6-10.2-25.6-10.1-10-24.8-10-15.1 0-25.2 10z"/>
			</g>
		</g>
	</g>
</svg>