<svg version="1.2" xmlns="http://www.w3.org/2000/svg" viewBox="0 0 1192 342" width="1192" height="342">
	<title>_תמונת נושא  hevruta (2)</title>
	<style>
		.s0 { fill: #ffffff } 
		.s1 { fill: #5ce1e6 } 
	</style>
	<g>
		<g>
			<g>
				<path class="s0" d="m5.6 316.6q-1.1 0-1.9-0.8-0.8-0.8-0.8-2v-8.5q0-1.2 0.8-2 0.8-0.7 1.9-0.7h8.6q1.2 0 2 0.7 0.8 0.8 0.8 2v8.5q0 1.2-0.8 2-0.8 0.8-2 0.8z"/>
			</g>
		</g>
	</g>
	<g>
		<g>
			<g>
				<path class="s0" d="m38.8 258.3q-1.2 0-2-0.8-0.8-0.8-0.8-1.9v-4.1q0-1.2 0.8-1.9 0.8-0.8 2-0.8h25.7q10.2 0 16.9 3.3 6.7 3.2 10.1 9.7 3.3 6.5 3.3 16v36q0 1.2-0.8 2-0.8 0.8-1.9 0.8h-5.4q-1.3 0-2-0.8-0.7-0.8-0.7-2v-35.5q0-9.4-4.8-14.7-4.7-5.3-15.3-5.3zm10.7-5.8h3q1.7 0 2.6 0.9 0.9 0.9 0.8 2.2-0.9 4.9-1.6 9-0.7 4-0.9 8-0.2 4-0.2 9l0.3 32.2q0 1.2-0.7 2-0.8 0.8-2 0.8l-16.9-0.3q-1.2 0-1.9-0.7-0.8-0.7-0.8-2v-3.8q0-1.2 0.8-2 0.7-0.7 1.9-0.7l9.2 0.1v-25.2q0-4.8 0.1-8.9 0.1-4.1 0.7-8.3 0.6-4.1 1.9-9.4 0.4-1.3 1.1-2.1 0.8-0.8 2.6-0.8z"/>
			</g>
		</g>
	</g>
	<g>
		<g>
			<g>
				<path class="s0" d="m115.1 316.6q-1.2 0-2-0.8-0.8-0.8-0.8-2v-62.3q0-1.2 0.8-1.9 0.8-0.8 2-0.8h5.6q1.3 0 2 0.8 0.7 0.7 0.7 1.9v62.3q0 1.2-0.7 2-0.7 0.8-2 0.8z"/>
			</g>
		</g>
	</g>
	<g>
		<g>
			<g>
				<path class="s0" d="m144.4 316.6q-1.2 0-2-0.8-0.7-0.8-0.7-2v-62.3q0-1.2 0.7-1.9 0.8-0.8 2-0.8h23.1q10.2 0 16.9 3.3 6.8 3.2 10.1 9.7 3.3 6.5 3.3 16.2v35.8q0 1.2-0.8 2-0.7 0.8-1.9 0.8h-5.4q-1.3 0-2-0.8-0.7-0.8-0.7-2v-35.5q0-9.4-4.7-14.7-4.8-5.3-15.4-5.3h-14.4v55.5q0 1.2-0.8 2-0.7 0.8-1.8 0.8z"/>
			</g>
		</g>
	</g>
	<g>
		<g>
			<g>
				<path class="s0" d="m225 258.5v9.3q0.1 4.3 1.1 7.1 1 2.9 3.6 3.6l4.4 1.1q1 0.3 1.5 1.3 0.5 1 0.5 2.4v3q0 1.3-1.3 1.9-1.3 0.6-2.8 0.4l-4.6-1q-3.8-0.9-6.6-3.4-2.7-2.4-4.1-6.6-1.3-4.2-1.3-10.2v-15.9q0-1.2 0.7-1.9 0.7-0.8 2-0.8h22q8.9 0 14.8 3.5 5.9 3.5 9 10.1 3.1 6.6 3.4 15.8 0.1 1.8 0.1 4.5 0 2.6-0.1 4.4-0.3 9.2-3.4 15.8-3.1 6.7-9 10.2-5.9 3.5-14.8 3.5h-20.6q-1.2 0-1.9-0.8-0.8-0.8-0.8-2v-4.2q0-1.2 0.8-2 0.7-0.8 1.9-0.8h20q8.2 0 12.6-5.2 4.5-5.3 5-14.8 0.1-1.8 0.1-4.1 0-2.3-0.1-4.1-0.3-9.5-4.9-14.8-4.5-5.3-12.7-5.3z"/>
			</g>
		</g>
	</g>
	<g>
		<g>
			<g>
			</g>
		</g>
	</g>
	<g>
		<g>
			<g>
				<path class="s0" d="m314.7 316.6q-1.2 0-1.9-0.8-0.8-0.8-0.8-2v-62.3q0-1.2 0.8-1.9 0.7-0.8 1.9-0.8h22.7q10.2 0 16.9 3.3 6.6 3.2 9.9 9.6 3.2 6.4 3.2 16.1v36q0 1.2-0.7 2-0.7 0.8-2 0.8zm7.5-9.5h34.6v-28.8q0-9.4-4.7-14.7-4.8-5.3-15.3-5.3h-14.6z"/>
			</g>
		</g>
	</g>
	<g>
		<g>
			<g>
				<path class="s0" d="m387 289q-1.2 0-1.9-0.7-0.8-0.8-0.8-2v-34.8q0-1.2 0.8-1.9 0.7-0.8 1.9-0.8h5.7q1.2 0 1.9 0.8 0.7 0.7 0.7 1.9v34.8q0 1.2-0.7 2-0.7 0.7-1.9 0.7z"/>
			</g>
		</g>
	</g>
	<g>
		<g>
			<g>
				<path class="s0" d="m442.6 258.5h-28.9q-1.3 0-2-0.7-0.7-0.8-0.7-2v-4.3q0-1.2 0.7-1.9 0.7-0.8 2-0.8h30.2q7.3 0 13.1 3.4 5.8 3.5 9 9.9 3.3 6.5 3.3 15.7v36q0 1.2-0.7 2-0.8 0.8-2 0.8h-30.7q-1.2 0-1.9-0.8-0.8-0.8-0.8-2v-4q0-1.2 0.8-2 0.7-0.7 1.9-0.7h22.6v-28.6q0-6.1-2.1-10.6-2.1-4.5-5.7-6.9-3.6-2.5-8.1-2.5zm-30.1 58.1q-1 0-1.7-0.9-0.8-0.8-0.6-2l10.1-58.1q0.2-1.2 1-1.9 0.9-0.6 2-0.4l4.8 0.2q1.2 0.2 1.9 1.1 0.7 0.8 0.5 2l-9.5 57.1q-0.2 1.2-1 2-0.9 0.9-2.1 0.9z"/>
			</g>
		</g>
	</g>
	<g>
		<g>
			<g>
				<path class="s0" d="m501.4 317.6q-1 0.4-2-0.3-0.9-0.6-0.9-1.8v-5.5q0-1 0.6-1.9 0.7-0.8 2-1.3l4.6-1.7q4.6-2.1 8.5-4.9 3.9-2.9 6.1-7.9 2.2-4.9 2.2-13 0-7.7-1.9-12.3-1.8-4.6-6.2-6.5-4.3-2-11.8-2h-3.5q-1.2 0-2-0.7-0.8-0.8-0.8-2v-4.3q0-1.2 0.8-1.9 0.8-0.8 2-0.8h5.2q10.8 0 17.2 3.1 6.4 3.1 9.2 9.9 2.8 6.8 2.8 17.8 0 8.4-2.3 14.4-2.2 6.1-6.1 10.3-3.8 4.3-8.7 7.1-4.9 2.8-10.1 4.6zm0.3-59.1l-14.2-0.2q-1.2 0-1.9-0.7-0.8-0.7-0.8-1.9v-20.7q0-1.2 0.8-2 0.7-0.8 1.9-0.8h5q1.3 0 2 0.8 0.7 0.8 0.7 2v13.7h6.7z"/>
			</g>
		</g>
	</g>
	<g>
		<g>
			<g>
				<path class="s0" d="m582.8 307.7q7.7 0.1 12.9-2.9 5.3-2.9 8.1-8.5 2.8-5.5 2.8-12.6v-32.2q0-1.2 0.8-1.9 0.7-0.8 1.9-0.8h5q1.2 0 1.9 0.8 0.7 0.7 0.7 1.9v33q0 7.6-2.3 13.7-2.4 6.2-6.8 10.5-4.4 4.3-10.4 6.6-6 2.2-13.2 2h-8.9q-7.7 0-13.9-3.6-6.2-3.5-9.7-9.9-3.6-6.5-3.6-14.9v-37.4q0-1.2 0.8-1.9 0.7-0.8 1.9-0.8h5q1.2 0 2 0.8 0.7 0.7 0.7 1.9l0.4 35q0 10.2 5.7 15.7 5.7 5.5 14.5 5.5zm-26.4-13.9l-0.2-8.7q8.8-0.1 13.4-2.7 4.6-2.5 6.5-6.8 1.8-4.2 1.8-9.4v-14.7q0-1.2 0.7-1.9 0.7-0.8 2-0.8h4.9q1.2 0 1.9 0.8 0.8 0.7 0.8 1.9v15.2q0 7.7-3.4 13.9-3.5 6.2-10.5 9.7-7.1 3.6-17.9 3.5z"/>
			</g>
		</g>
	</g>
	<g>
		<g>
			<g>
				<path class="s0" d="m663.2 258.5h-28.8q-1.3 0-2-0.7-0.8-0.8-0.7-2v-4.3q-0.1-1.2 0.7-1.9 0.7-0.8 2-0.8h30.1q7.4 0 13.2 3.4 5.7 3.5 9 9.9 3.2 6.5 3.2 15.7v36q0 1.2-0.7 2-0.7 0.8-2 0.8h-30.6q-1.2 0-2-0.8-0.7-0.8-0.7-2v-4q0-1.2 0.7-2 0.8-0.7 2-0.7h22.5v-28.6q0-6.1-2-10.6-2.1-4.5-5.7-6.9-3.7-2.5-8.2-2.5zm-30 58.1q-1.1 0-1.8-0.9-0.7-0.8-0.6-2l10.1-58.1q0.2-1.2 1.1-1.9 0.8-0.6 2-0.4l4.7 0.2q1.2 0.2 2 1.1 0.7 0.8 0.4 2l-9.5 57.1q-0.1 1.2-1 2-0.9 0.9-2.1 0.9z"/>
			</g>
		</g>
	</g>
	<g>
		<g>
			<g>
			</g>
		</g>
	</g>
	<g>
		<g>
			<g>
				<path class="s0" d="m786.9 248.8q1.3 0 2.2 0.8 0.8 0.8 0.8 2.2v10.2q0 1.1-0.8 2-0.9 0.9-2.2 0.9h-5.4q-1.5 2.3-2.2 6.1-0.8 3.8-0.8 8.4v34.6q0 1-1.1 1.8-1.2 0.8-2.4 0.8h-13.8q-1.2 0-1.9-0.7-0.8-0.8-0.8-1.9v-35.9q0-9.6 2.4-13.2h-27q-1.2 0-2.1-0.9-0.9-0.9-0.9-2v-10.2q0-1.4 0.9-2.2 0.9-0.8 2.1-0.8z"/>
			</g>
		</g>
	</g>
	<g>
		<g>
			<g>
				<path class="s0" d="m803.8 316.6q-1.3 0-2.2-0.9-0.9-0.8-0.9-2.1v-61.8q0-1.4 0.9-2.2 0.9-0.8 2.2-0.8h28q16.8 0 24.9 6.9 8 7 8 22.9v35q0 1.2-0.9 2.1-0.8 0.9-2.1 0.9h-14q-1.3 0-2.2-0.9-0.9-0.8-0.9-2.1v-35.1q0-13.6-13.4-13.6h-10.4v48.7q-0.1 1.2-0.9 2.1-0.8 0.9-2.1 0.9z"/>
			</g>
		</g>
	</g>
	<g>
		<g>
			<g>
				<path class="s0" d="m880.7 288.4q-1.3 0-2.2-0.8-0.9-0.8-0.9-2.1v-33.7q0-1.4 0.9-2.2 0.9-0.8 2.2-0.8h14.8q1.3 0 2.2 0.8 0.8 0.8 0.8 2.2v33.7q0 1.2-0.8 2.1-0.9 0.8-2.2 0.8z"/>
			</g>
		</g>
	</g>
	<g>
		<g>
			<g>
			</g>
		</g>
	</g>
	<g>
		<g>
			<g>
				<path class="s0" d="m946 316.6q-1.2 0-2-0.8-0.7-0.8-0.7-2v-62.3q0-1.2 0.7-1.9 0.8-0.8 2-0.8h22.7q10.2 0 16.8 3.3 6.7 3.2 10 9.6 3.2 6.4 3.2 16.1v36q0 1.2-0.7 2-0.7 0.8-2 0.8zm7.5-9.5h34.6v-28.8q0-9.4-4.7-14.7-4.8-5.3-15.3-5.3h-14.6z"/>
			</g>
		</g>
	</g>
	<g>
		<g>
			<g>
				<path class="s0" d="m1018.3 289q-1.2 0-2-0.7-0.7-0.8-0.7-2v-34.8q0-1.2 0.7-1.9 0.8-0.8 2-0.8h5.7q1.2 0 1.9 0.8 0.7 0.7 0.7 1.9v34.8q0 1.2-0.7 2-0.7 0.7-1.9 0.7z"/>
			</g>
		</g>
	</g>
	<g>
		<g>
			<g>
				<path class="s0" d="m1043.1 316.6q-1.2 0-2-0.8-0.7-0.8-0.7-2v-4q0-1.2 0.7-2 0.8-0.7 2-0.7h33.5v7.2q0 1.2-0.8 1.7-0.8 0.6-2 0.6zm26.3 0q-1.2 0-1.9-0.8-0.6-0.8-0.9-2l-2.2-36.6q-0.3-5.9-0.9-10.1-0.7-4.3-2.9-6.7-2.1-2.3-7.2-2.3h-4.9q-1.2 0-2-0.8-0.7-0.8-0.7-2v-4q0-1.2 0.7-2 0.8-0.7 2-0.7h5q6.7 0 10.9 1.9 4.1 2 6.5 5.7 2.3 3.7 3.3 9 1 5.2 1.4 11.6l2.2 37q0.1 1.2-0.7 2-0.8 0.8-2 0.8z"/>
			</g>
		</g>
	</g>
	<g>
		<g>
			<g>
				<path class="s0" d="m1095.2 316.6q-1.2 0-1.9-0.8-0.8-0.8-0.8-2v-62.3q0-1.2 0.8-1.9 0.7-0.8 1.9-0.8h5.6q1.3 0 2 0.8 0.7 0.7 0.7 1.9v62.3q0 1.2-0.7 2-0.7 0.8-2 0.8z"/>
			</g>
		</g>
	</g>
	<g>
		<g>
			<g>
				<path class="s0" d="m1124.5 339.2q-1.1 0-1.9-0.7-0.8-0.8-0.8-2v-62.3q0-1.2 0.8-2 0.8-0.7 1.9-0.7h5.3q1.3 0 2 0.7 0.7 0.8 0.7 2v62.3q0 1.2-0.7 2-0.7 0.7-2 0.7zm22.7-21.6q-1 0.4-1.9-0.3-0.9-0.6-0.9-1.8v-5.5q0-1 0.7-1.9 0.6-0.8 1.9-1.3l4.5-1.7q4.8-2.1 8.6-4.9 3.9-2.9 6.1-7.9 2.2-4.9 2.2-13 0-7.7-1.9-12.3-1.9-4.6-6.3-6.5-4.3-2-11.6-2h-24.1q-1.2 0-2-0.7-0.8-0.8-0.8-2v-4.3q0-1.2 0.8-1.9 0.8-0.8 2-0.8h25.6q10.9 0 17.3 3.1 6.3 3.1 9.1 9.9 2.8 6.8 2.8 17.8 0 8.4-2.3 14.4-2.2 6.1-6.1 10.3-3.8 4.3-8.6 7.1-4.8 2.8-10.1 4.6z"/>
			</g>
		</g>
	</g>
	<g>
		<g>
			<g>
				<path class="s1" d="m177.6 180.3v-177.5h36.5v82.8h0.4q14.2-14.3 30.3-14.3 7.9 0 15.6 2.1 7.8 2.1 14.9 6.4 7.1 4.3 11.5 12.3 4.5 7.9 4.5 18.4v69.8h-36.6v-59.8q0-8.3-5.2-14.5-5.3-6.2-13.8-6.2-8.2 0-14.9 6.4-6.7 6.4-6.7 14.3v59.8z"/>
			</g>
		</g>
	</g>
	<g>
		<g>
			<g>
				<path class="s1" d="m421.1 132.4h-76.8q0 11.2 7.2 16.6 7.3 5.3 15.7 5.3 8.9 0 14-2.4 5.2-2.3 11.8-9.4l26.4 13.3q-16.5 27.6-54.9 27.6-23.9 0-41-16.4-17.2-16.4-17.2-39.5 0-23.1 17.2-39.6 17.1-16.6 41-16.6 25.2 0 41 14.6 15.8 14.5 15.8 41.6 0 3.7-0.2 4.9zm-75.8-20.2h40.3q-1.3-8.2-6.5-12.7-5.3-4.4-13.5-4.4-9.1 0-14.5 4.7-5.3 4.8-5.8 12.4z"/>
			</g>
		</g>
	</g>
	<g>
		<g>
			<g>
				<path class="s1" d="m465.3 74.4l25.7 57.6 25.8-57.6h43.4l-56.8 105.9h-24.7l-56.8-105.9z"/>
			</g>
		</g>
	</g>
	<g>
		<g>
			<g>
				<path class="s1" d="m568.4 180.3v-105.9h36.6v15.3h0.4q0.4-0.8 1.3-2.1 0.9-1.2 4-4.3 3.1-3.1 6.7-5.5 3.5-2.5 9-4.5 5.6-2 11.4-2 6 0 11.8 1.7 5.7 1.6 8.4 3.3l2.9 1.6-15.3 31q-6.8-5.8-19-5.8-6.6 0-11.3 2.9-4.8 2.9-6.7 7-2 4.2-2.8 7-0.8 2.9-0.8 4.6v55.7z"/>
			</g>
		</g>
	</g>
	<g>
		<g>
			<g>
				<path class="s1" d="m705.7 74.4v50.4q0 15.7 4.7 22.3 4.8 6.6 16.1 6.6 11.4 0 16.1-6.6 4.8-6.6 4.8-22.3v-50.4h36.5v59.3q0 26.4-13.7 38.1-13.7 11.6-43.7 11.6-29.9 0-43.6-11.6-13.8-11.7-13.8-38.1v-59.3z"/>
			</g>
		</g>
	</g>
	<g>
		<g>
			<g>
				<path class="s1" d="m812.8 74.4v-39.4h36.5v39.4h22.3v27.9h-22.3v33.6q0 14.7 8.3 14.7 2 0 4.3-0.8 2.3-0.9 3.5-1.7l1.3-0.8 9.1 29.5q-11.8 6.6-26.9 6.6-10.3 0-17.7-3.6-7.5-3.6-11.3-9.7-3.8-6.1-5.5-12.8-1.6-6.7-1.6-14.3v-40.7h-15.3v-27.9z"/>
			</g>
		</g>
	</g>
	<g>
		<g>
			<g>
				<path class="s1" d="m895.4 167.2q-14.9-16.2-14.9-39.7 0-23.5 14.9-39.8 14.8-16.4 37.7-16.4 21.1 0 34.7 13.2v-10.1h36.5v105.9h-36.1v-12h-0.4q-13.6 15.1-34.7 15.1-22.9 0-37.7-16.2zm31-57.7q-7.1 7-7.1 18 0 10.9 6.8 17.8 6.8 7 18 7 10.7 0 17.6-7.1 6.9-7 6.9-17.7 0-11-7.1-18-7.1-7-17.4-7-10.6 0-17.7 7z"/>
			</g>
		</g>
	</g>
</svg>