<svg xmlns="http://www.w3.org/2000/svg" xmlns:xlink="http://www.w3.org/1999/xlink" width="500" zoomAndPan="magnify" viewBox="0 0 375 374.999991" height="500" preserveAspectRatio="xMidYMid meet" version="1.0"><defs><g/><clipPath id="b8c1c76d19"><path d="M 187.5 0 C 83.945312 0 0 83.945312 0 187.5 C 0 291.054688 83.945312 375 187.5 375 C 291.054688 375 375 291.054688 375 187.5 C 375 83.945312 291.054688 0 187.5 0 Z M 187.5 0 " clip-rule="nonzero"/></clipPath></defs><g clip-path="url(#b8c1c76d19)"><path stroke-linecap="butt" transform="matrix(0.75, 0, 0, 0.75, 0.0000045, 0.000000000000021316)" fill="none" stroke-linejoin="miter" d="M 249.999994 -0.000000000000028422 C 111.927078 -0.000000000000028422 -0.000006 111.927084 -0.000006 250 C -0.000006 388.072917 111.927078 500.000001 249.999994 500.000001 C 388.072911 500.000001 499.999995 388.072917 499.999995 250 C 499.999995 111.927084 388.072911 -0.000000000000028422 249.999994 -0.000000000000028422 Z M 249.999994 -0.000000000000028422 " stroke="#5ce1e6" stroke-width="20" stroke-opacity="1" stroke-miterlimit="4"/></g><g fill="#000000" fill-opacity="1"><g transform="translate(37.511721, 228.465674)"><g><path d="M 2.6875 0 C 2.488281 0 2.320312 -0.0625 2.1875 -0.1875 C 2.0625 -0.320312 2 -0.488281 2 -0.6875 L 2 -2.84375 C 2 -3.039062 2.0625 -3.203125 2.1875 -3.328125 C 2.320312 -3.460938 2.488281 -3.53125 2.6875 -3.53125 L 4.84375 -3.53125 C 5.039062 -3.53125 5.207031 -3.460938 5.34375 -3.328125 C 5.488281 -3.203125 5.5625 -3.039062 5.5625 -2.84375 L 5.5625 -0.6875 C 5.5625 -0.488281 5.488281 -0.320312 5.34375 -0.1875 C 5.207031 -0.0625 5.039062 0 4.84375 0 Z M 2.6875 0 "/></g></g></g><g fill="#000000" fill-opacity="1"><g transform="translate(45.03922, 228.465674)"><g><path d="M 3.5 -14.671875 C 3.300781 -14.671875 3.132812 -14.734375 3 -14.859375 C 2.875 -14.992188 2.8125 -15.160156 2.8125 -15.359375 L 2.8125 -16.375 C 2.8125 -16.570312 2.875 -16.734375 3 -16.859375 C 3.132812 -16.992188 3.300781 -17.0625 3.5 -17.0625 L 9.984375 -17.0625 C 11.691406 -17.0625 13.109375 -16.785156 14.234375 -16.234375 C 15.359375 -15.691406 16.195312 -14.875 16.75 -13.78125 C 17.3125 -12.695312 17.59375 -11.359375 17.59375 -9.765625 L 17.59375 -0.6875 C 17.59375 -0.488281 17.523438 -0.320312 17.390625 -0.1875 C 17.265625 -0.0625 17.101562 0 16.90625 0 L 15.5625 0 C 15.34375 0 15.171875 -0.0625 15.046875 -0.1875 C 14.929688 -0.320312 14.875 -0.488281 14.875 -0.6875 L 14.875 -9.625 C 14.875 -11.21875 14.472656 -12.457031 13.671875 -13.34375 C 12.878906 -14.226562 11.597656 -14.671875 9.828125 -14.671875 Z M 6.1875 -16.125 L 6.9375 -16.125 C 7.226562 -16.125 7.445312 -16.050781 7.59375 -15.90625 C 7.75 -15.757812 7.816406 -15.578125 7.796875 -15.359375 C 7.640625 -14.515625 7.503906 -13.753906 7.390625 -13.078125 C 7.285156 -12.398438 7.210938 -11.726562 7.171875 -11.0625 C 7.128906 -10.394531 7.109375 -9.644531 7.109375 -8.8125 L 7.203125 -0.6875 C 7.203125 -0.488281 7.132812 -0.320312 7 -0.1875 C 6.875 -0.0625 6.710938 0 6.515625 0 L 2.265625 -0.0625 C 2.066406 -0.0625 1.898438 -0.117188 1.765625 -0.234375 C 1.640625 -0.359375 1.578125 -0.53125 1.578125 -0.75 L 1.578125 -1.703125 C 1.578125 -1.898438 1.640625 -2.0625 1.765625 -2.1875 C 1.898438 -2.320312 2.066406 -2.390625 2.265625 -2.390625 L 4.578125 -2.359375 L 4.578125 -8.6875 C 4.578125 -9.507812 4.582031 -10.265625 4.59375 -10.953125 C 4.613281 -11.640625 4.671875 -12.332031 4.765625 -13.03125 C 4.867188 -13.726562 5.035156 -14.515625 5.265625 -15.390625 C 5.316406 -15.609375 5.40625 -15.785156 5.53125 -15.921875 C 5.664062 -16.054688 5.882812 -16.125 6.1875 -16.125 Z M 6.1875 -16.125 "/></g></g></g><g fill="#000000" fill-opacity="1"><g transform="translate(64.754105, 228.465674)"><g><path d="M 2.984375 0 C 2.785156 0 2.617188 -0.0625 2.484375 -0.1875 C 2.359375 -0.320312 2.296875 -0.488281 2.296875 -0.6875 L 2.296875 -16.375 C 2.296875 -16.570312 2.359375 -16.734375 2.484375 -16.859375 C 2.617188 -16.992188 2.785156 -17.0625 2.984375 -17.0625 L 4.390625 -17.0625 C 4.609375 -17.0625 4.773438 -16.992188 4.890625 -16.859375 C 5.015625 -16.734375 5.078125 -16.570312 5.078125 -16.375 L 5.078125 -0.6875 C 5.078125 -0.488281 5.015625 -0.320312 4.890625 -0.1875 C 4.773438 -0.0625 4.609375 0 4.390625 0 Z M 2.984375 0 "/></g></g></g><g fill="#000000" fill-opacity="1"><g transform="translate(72.132247, 228.465674)"><g><path d="M 2.984375 0 C 2.785156 0 2.617188 -0.0625 2.484375 -0.1875 C 2.359375 -0.320312 2.296875 -0.488281 2.296875 -0.6875 L 2.296875 -16.375 C 2.296875 -16.570312 2.359375 -16.734375 2.484375 -16.859375 C 2.617188 -16.992188 2.785156 -17.0625 2.984375 -17.0625 L 8.8125 -17.0625 C 10.519531 -17.0625 11.9375 -16.785156 13.0625 -16.234375 C 14.195312 -15.691406 15.039062 -14.875 15.59375 -13.78125 C 16.15625 -12.695312 16.4375 -11.335938 16.4375 -9.703125 L 16.4375 -0.6875 C 16.4375 -0.488281 16.367188 -0.320312 16.234375 -0.1875 C 16.109375 -0.0625 15.945312 0 15.75 0 L 14.40625 0 C 14.1875 0 14.015625 -0.0625 13.890625 -0.1875 C 13.773438 -0.320312 13.71875 -0.488281 13.71875 -0.6875 L 13.71875 -9.625 C 13.71875 -11.21875 13.316406 -12.457031 12.515625 -13.34375 C 11.722656 -14.226562 10.4375 -14.671875 8.65625 -14.671875 L 5.015625 -14.671875 L 5.015625 -0.6875 C 5.015625 -0.488281 4.953125 -0.320312 4.828125 -0.1875 C 4.710938 -0.0625 4.554688 0 4.359375 0 Z M 2.984375 0 "/></g></g></g><g fill="#000000" fill-opacity="1"><g transform="translate(90.682169, 228.465674)"><g><path d="M 4.71875 -14.609375 L 4.71875 -12.28125 C 4.738281 -11.5625 4.832031 -10.960938 5 -10.484375 C 5.175781 -10.003906 5.484375 -9.707031 5.921875 -9.59375 L 7.015625 -9.296875 C 7.179688 -9.253906 7.304688 -9.144531 7.390625 -8.96875 C 7.484375 -8.800781 7.53125 -8.597656 7.53125 -8.359375 L 7.53125 -7.625 C 7.53125 -7.40625 7.421875 -7.242188 7.203125 -7.140625 C 6.984375 -7.035156 6.742188 -7.003906 6.484375 -7.046875 L 5.3125 -7.296875 C 4.675781 -7.453125 4.128906 -7.734375 3.671875 -8.140625 C 3.210938 -8.546875 2.867188 -9.101562 2.640625 -9.8125 C 2.410156 -10.519531 2.296875 -11.375 2.296875 -12.375 L 2.296875 -16.375 C 2.296875 -16.570312 2.351562 -16.734375 2.46875 -16.859375 C 2.59375 -16.992188 2.765625 -17.0625 2.984375 -17.0625 L 8.515625 -17.0625 C 10.003906 -17.0625 11.25 -16.765625 12.25 -16.171875 C 13.25 -15.585938 14.003906 -14.742188 14.515625 -13.640625 C 15.035156 -12.535156 15.316406 -11.207031 15.359375 -9.65625 C 15.378906 -9.351562 15.390625 -8.976562 15.390625 -8.53125 C 15.390625 -8.082031 15.378906 -7.707031 15.359375 -7.40625 C 15.316406 -5.875 15.035156 -4.550781 14.515625 -3.4375 C 14.003906 -2.320312 13.25 -1.46875 12.25 -0.875 C 11.25 -0.289062 10.003906 0 8.515625 0 L 3.34375 0 C 3.144531 0 2.976562 -0.0625 2.84375 -0.1875 C 2.71875 -0.320312 2.65625 -0.488281 2.65625 -0.6875 L 2.65625 -1.765625 C 2.65625 -1.960938 2.71875 -2.125 2.84375 -2.25 C 2.976562 -2.382812 3.144531 -2.453125 3.34375 -2.453125 L 8.359375 -2.453125 C 9.734375 -2.453125 10.796875 -2.894531 11.546875 -3.78125 C 12.296875 -4.664062 12.707031 -5.90625 12.78125 -7.5 C 12.800781 -7.800781 12.8125 -8.144531 12.8125 -8.53125 C 12.8125 -8.914062 12.800781 -9.257812 12.78125 -9.5625 C 12.75 -11.15625 12.347656 -12.394531 11.578125 -13.28125 C 10.804688 -14.164062 9.734375 -14.609375 8.359375 -14.609375 Z M 4.71875 -14.609375 "/></g></g></g><g fill="#000000" fill-opacity="1"><g transform="translate(107.678796, 228.465674)"><g/></g></g><g fill="#000000" fill-opacity="1"><g transform="translate(114.9972, 228.465674)"><g><path d="M 2.984375 0 C 2.785156 0 2.617188 -0.0625 2.484375 -0.1875 C 2.359375 -0.320312 2.296875 -0.488281 2.296875 -0.6875 L 2.296875 -16.375 C 2.296875 -16.570312 2.359375 -16.734375 2.484375 -16.859375 C 2.617188 -16.992188 2.785156 -17.0625 2.984375 -17.0625 L 8.6875 -17.0625 C 10.40625 -17.0625 11.820312 -16.785156 12.9375 -16.234375 C 14.050781 -15.691406 14.878906 -14.878906 15.421875 -13.796875 C 15.972656 -12.722656 16.25 -11.378906 16.25 -9.765625 L 16.25 -0.6875 C 16.25 -0.488281 16.1875 -0.320312 16.0625 -0.1875 C 15.945312 -0.0625 15.78125 0 15.5625 0 Z M 4.875 -2.390625 L 13.59375 -2.390625 L 13.59375 -9.625 C 13.59375 -11.21875 13.191406 -12.457031 12.390625 -13.34375 C 11.597656 -14.226562 10.316406 -14.671875 8.546875 -14.671875 L 4.875 -14.671875 Z M 4.875 -2.390625 "/></g></g></g><g fill="#000000" fill-opacity="1"><g transform="translate(133.397765, 228.465674)"><g><path d="M 2.78125 -6.9375 C 2.582031 -6.9375 2.414062 -7 2.28125 -7.125 C 2.15625 -7.25 2.09375 -7.414062 2.09375 -7.625 L 2.09375 -16.375 C 2.09375 -16.570312 2.15625 -16.734375 2.28125 -16.859375 C 2.414062 -16.992188 2.582031 -17.0625 2.78125 -17.0625 L 4.21875 -17.0625 C 4.414062 -17.0625 4.570312 -16.992188 4.6875 -16.859375 C 4.8125 -16.734375 4.875 -16.570312 4.875 -16.375 L 4.875 -7.625 C 4.875 -7.414062 4.8125 -7.25 4.6875 -7.125 C 4.570312 -7 4.414062 -6.9375 4.21875 -6.9375 Z M 2.78125 -6.9375 "/></g></g></g><g fill="#000000" fill-opacity="1"><g transform="translate(140.387587, 228.465674)"><g><path d="M 9.765625 -14.609375 L 2.515625 -14.609375 C 2.296875 -14.609375 2.125 -14.671875 2 -14.796875 C 1.882812 -14.929688 1.828125 -15.097656 1.828125 -15.296875 L 1.828125 -16.375 C 1.828125 -16.570312 1.882812 -16.734375 2 -16.859375 C 2.125 -16.992188 2.296875 -17.0625 2.515625 -17.0625 L 10.09375 -17.0625 C 11.332031 -17.0625 12.429688 -16.769531 13.390625 -16.1875 C 14.359375 -15.613281 15.113281 -14.78125 15.65625 -13.6875 C 16.207031 -12.601562 16.484375 -11.296875 16.484375 -9.765625 L 16.484375 -0.6875 C 16.484375 -0.488281 16.421875 -0.320312 16.296875 -0.1875 C 16.179688 -0.0625 16.015625 0 15.796875 0 L 8.09375 0 C 7.894531 0 7.726562 -0.0625 7.59375 -0.1875 C 7.46875 -0.320312 7.40625 -0.488281 7.40625 -0.6875 L 7.40625 -1.703125 C 7.40625 -1.898438 7.46875 -2.0625 7.59375 -2.1875 C 7.726562 -2.320312 7.894531 -2.390625 8.09375 -2.390625 L 13.765625 -2.390625 L 13.765625 -9.59375 C 13.765625 -10.601562 13.59375 -11.488281 13.25 -12.25 C 12.90625 -13.007812 12.425781 -13.59375 11.8125 -14 C 11.207031 -14.40625 10.523438 -14.609375 9.765625 -14.609375 Z M 2.203125 0 C 2.023438 0 1.875 -0.0664062 1.75 -0.203125 C 1.632812 -0.347656 1.585938 -0.519531 1.609375 -0.71875 L 4.15625 -15.359375 C 4.195312 -15.554688 4.285156 -15.707031 4.421875 -15.8125 C 4.554688 -15.925781 4.722656 -15.960938 4.921875 -15.921875 L 6.125 -15.859375 C 6.320312 -15.835938 6.476562 -15.753906 6.59375 -15.609375 C 6.71875 -15.460938 6.757812 -15.289062 6.71875 -15.09375 L 4.328125 -0.71875 C 4.304688 -0.519531 4.222656 -0.347656 4.078125 -0.203125 C 3.929688 -0.0664062 3.757812 0 3.5625 0 Z M 2.203125 0 "/></g></g></g><g fill="#000000" fill-opacity="1"><g transform="translate(158.997247, 228.465674)"><g><path d="M 5.96875 0.265625 C 5.789062 0.328125 5.625 0.300781 5.46875 0.1875 C 5.3125 0.0820312 5.234375 -0.0664062 5.234375 -0.265625 L 5.234375 -1.640625 C 5.234375 -1.816406 5.285156 -1.972656 5.390625 -2.109375 C 5.503906 -2.253906 5.671875 -2.367188 5.890625 -2.453125 L 7.046875 -2.890625 C 7.828125 -3.234375 8.539062 -3.644531 9.1875 -4.125 C 9.832031 -4.601562 10.335938 -5.257812 10.703125 -6.09375 C 11.078125 -6.925781 11.265625 -8.019531 11.265625 -9.375 C 11.265625 -10.675781 11.109375 -11.707031 10.796875 -12.46875 C 10.492188 -13.238281 9.976562 -13.785156 9.25 -14.109375 C 8.519531 -14.441406 7.53125 -14.609375 6.28125 -14.609375 L 5.375 -14.609375 C 5.175781 -14.609375 5.007812 -14.671875 4.875 -14.796875 C 4.75 -14.929688 4.6875 -15.097656 4.6875 -15.296875 L 4.6875 -16.375 C 4.6875 -16.570312 4.75 -16.734375 4.875 -16.859375 C 5.007812 -16.992188 5.175781 -17.0625 5.375 -17.0625 L 6.6875 -17.0625 C 8.5 -17.0625 9.941406 -16.800781 11.015625 -16.28125 C 12.097656 -15.757812 12.875 -14.925781 13.34375 -13.78125 C 13.8125 -12.632812 14.046875 -11.140625 14.046875 -9.296875 C 14.046875 -7.898438 13.851562 -6.691406 13.46875 -5.671875 C 13.09375 -4.660156 12.582031 -3.796875 11.9375 -3.078125 C 11.289062 -2.359375 10.554688 -1.765625 9.734375 -1.296875 C 8.921875 -0.828125 8.078125 -0.445312 7.203125 -0.15625 Z M 6.03125 -14.609375 L 2.484375 -14.640625 C 2.285156 -14.640625 2.117188 -14.695312 1.984375 -14.8125 C 1.859375 -14.9375 1.796875 -15.097656 1.796875 -15.296875 L 1.796875 -20.53125 C 1.796875 -20.726562 1.859375 -20.890625 1.984375 -21.015625 C 2.117188 -21.148438 2.285156 -21.21875 2.484375 -21.21875 L 3.734375 -21.21875 C 3.953125 -21.21875 4.117188 -21.148438 4.234375 -21.015625 C 4.359375 -20.890625 4.421875 -20.726562 4.421875 -20.53125 L 4.421875 -17.0625 L 6.09375 -17.0625 Z M 6.03125 -14.609375 "/></g></g></g><g fill="#000000" fill-opacity="1"><g transform="translate(174.649674, 228.465674)"><g><path d="M 10.78125 -2.234375 C 12.082031 -2.210938 13.175781 -2.453125 14.0625 -2.953125 C 14.945312 -3.453125 15.625 -4.164062 16.09375 -5.09375 C 16.5625 -6.019531 16.796875 -7.082031 16.796875 -8.28125 L 16.796875 -16.375 C 16.796875 -16.570312 16.859375 -16.734375 16.984375 -16.859375 C 17.109375 -16.992188 17.273438 -17.0625 17.484375 -17.0625 L 18.734375 -17.0625 C 18.929688 -17.0625 19.085938 -16.992188 19.203125 -16.859375 C 19.328125 -16.734375 19.390625 -16.570312 19.390625 -16.375 L 19.390625 -8.0625 C 19.390625 -6.789062 19.1875 -5.640625 18.78125 -4.609375 C 18.382812 -3.585938 17.816406 -2.710938 17.078125 -1.984375 C 16.347656 -1.253906 15.476562 -0.703125 14.46875 -0.328125 C 13.46875 0.046875 12.359375 0.210938 11.140625 0.171875 L 8.90625 0.171875 C 7.601562 0.171875 6.4375 -0.125 5.40625 -0.71875 C 4.375 -1.3125 3.554688 -2.144531 2.953125 -3.21875 C 2.359375 -4.300781 2.0625 -5.546875 2.0625 -6.953125 L 2.0625 -16.375 C 2.0625 -16.570312 2.125 -16.734375 2.25 -16.859375 C 2.382812 -16.992188 2.550781 -17.0625 2.75 -17.0625 L 4 -17.0625 C 4.195312 -17.0625 4.359375 -16.992188 4.484375 -16.859375 C 4.617188 -16.734375 4.6875 -16.570312 4.6875 -16.375 L 4.78125 -7.5625 C 4.78125 -5.84375 5.253906 -4.523438 6.203125 -3.609375 C 7.160156 -2.691406 8.378906 -2.234375 9.859375 -2.234375 Z M 4.15625 -5.734375 L 4.09375 -7.921875 C 5.5625 -7.941406 6.6875 -8.164062 7.46875 -8.59375 C 8.25 -9.019531 8.789062 -9.585938 9.09375 -10.296875 C 9.40625 -11.015625 9.5625 -11.804688 9.5625 -12.671875 L 9.5625 -16.375 C 9.5625 -16.570312 9.617188 -16.734375 9.734375 -16.859375 C 9.859375 -16.992188 10.03125 -17.0625 10.25 -17.0625 L 11.46875 -17.0625 C 11.664062 -17.0625 11.828125 -16.992188 11.953125 -16.859375 C 12.085938 -16.734375 12.15625 -16.570312 12.15625 -16.375 L 12.15625 -12.546875 C 12.15625 -11.253906 11.863281 -10.085938 11.28125 -9.046875 C 10.707031 -8.015625 9.828125 -7.195312 8.640625 -6.59375 C 7.460938 -6 5.96875 -5.710938 4.15625 -5.734375 Z M 4.15625 -5.734375 "/></g></g></g><g fill="#000000" fill-opacity="1"><g transform="translate(195.917853, 228.465674)"><g><path d="M 9.765625 -14.609375 L 2.515625 -14.609375 C 2.296875 -14.609375 2.125 -14.671875 2 -14.796875 C 1.882812 -14.929688 1.828125 -15.097656 1.828125 -15.296875 L 1.828125 -16.375 C 1.828125 -16.570312 1.882812 -16.734375 2 -16.859375 C 2.125 -16.992188 2.296875 -17.0625 2.515625 -17.0625 L 10.09375 -17.0625 C 11.332031 -17.0625 12.429688 -16.769531 13.390625 -16.1875 C 14.359375 -15.613281 15.113281 -14.78125 15.65625 -13.6875 C 16.207031 -12.601562 16.484375 -11.296875 16.484375 -9.765625 L 16.484375 -0.6875 C 16.484375 -0.488281 16.421875 -0.320312 16.296875 -0.1875 C 16.179688 -0.0625 16.015625 0 15.796875 0 L 8.09375 0 C 7.894531 0 7.726562 -0.0625 7.59375 -0.1875 C 7.46875 -0.320312 7.40625 -0.488281 7.40625 -0.6875 L 7.40625 -1.703125 C 7.40625 -1.898438 7.46875 -2.0625 7.59375 -2.1875 C 7.726562 -2.320312 7.894531 -2.390625 8.09375 -2.390625 L 13.765625 -2.390625 L 13.765625 -9.59375 C 13.765625 -10.601562 13.59375 -11.488281 13.25 -12.25 C 12.90625 -13.007812 12.425781 -13.59375 11.8125 -14 C 11.207031 -14.40625 10.523438 -14.609375 9.765625 -14.609375 Z M 2.203125 0 C 2.023438 0 1.875 -0.0664062 1.75 -0.203125 C 1.632812 -0.347656 1.585938 -0.519531 1.609375 -0.71875 L 4.15625 -15.359375 C 4.195312 -15.554688 4.285156 -15.707031 4.421875 -15.8125 C 4.554688 -15.925781 4.722656 -15.960938 4.921875 -15.921875 L 6.125 -15.859375 C 6.320312 -15.835938 6.476562 -15.753906 6.59375 -15.609375 C 6.71875 -15.460938 6.757812 -15.289062 6.71875 -15.09375 L 4.328125 -0.71875 C 4.304688 -0.519531 4.222656 -0.347656 4.078125 -0.203125 C 3.929688 -0.0664062 3.757812 0 3.5625 0 Z M 2.203125 0 "/></g></g></g><g fill="#000000" fill-opacity="1"><g transform="translate(214.527512, 228.465674)"><g/></g></g><g fill="#000000" fill-opacity="1"><g transform="translate(221.84765, 228.465674)"><g><path d="M 14.96875 -17.0625 C 15.1875 -17.0625 15.363281 -16.988281 15.5 -16.84375 C 15.644531 -16.707031 15.71875 -16.53125 15.71875 -16.3125 L 15.71875 -13.75 C 15.71875 -13.539062 15.644531 -13.363281 15.5 -13.21875 C 15.363281 -13.070312 15.1875 -13 14.96875 -13 L 13.59375 -13 C 13.351562 -12.613281 13.164062 -12.101562 13.03125 -11.46875 C 12.90625 -10.832031 12.84375 -10.125 12.84375 -9.34375 L 12.84375 -0.65625 C 12.84375 -0.476562 12.75 -0.320312 12.5625 -0.1875 C 12.375 -0.0625 12.179688 0 11.984375 0 L 8.484375 0 C 8.285156 0 8.125 -0.0546875 8 -0.171875 C 7.882812 -0.296875 7.828125 -0.457031 7.828125 -0.65625 L 7.828125 -9.671875 C 7.828125 -11.285156 8.023438 -12.394531 8.421875 -13 L 1.609375 -13 C 1.410156 -13 1.234375 -13.070312 1.078125 -13.21875 C 0.929688 -13.363281 0.859375 -13.539062 0.859375 -13.75 L 0.859375 -16.3125 C 0.859375 -16.53125 0.929688 -16.707031 1.078125 -16.84375 C 1.234375 -16.988281 1.410156 -17.0625 1.609375 -17.0625 Z M 14.96875 -17.0625 "/></g></g></g><g fill="#000000" fill-opacity="1"><g transform="translate(238.515694, 228.465674)"><g><path d="M 2.546875 0 C 2.316406 0 2.128906 -0.0664062 1.984375 -0.203125 C 1.835938 -0.347656 1.765625 -0.53125 1.765625 -0.75 L 1.765625 -16.3125 C 1.765625 -16.53125 1.835938 -16.707031 1.984375 -16.84375 C 2.128906 -16.988281 2.316406 -17.0625 2.546875 -17.0625 L 9.59375 -17.0625 C 12.414062 -17.0625 14.5 -16.476562 15.84375 -15.3125 C 17.1875 -14.144531 17.859375 -12.226562 17.859375 -9.5625 L 17.859375 -0.75 C 17.859375 -0.550781 17.789062 -0.375 17.65625 -0.21875 C 17.519531 -0.0703125 17.34375 0 17.125 0 L 13.59375 0 C 13.375 0 13.1875 -0.0664062 13.03125 -0.203125 C 12.882812 -0.347656 12.8125 -0.53125 12.8125 -0.75 L 12.8125 -9.59375 C 12.8125 -11.863281 11.6875 -13 9.4375 -13 L 6.8125 -13 L 6.8125 -0.75 C 6.8125 -0.550781 6.738281 -0.375 6.59375 -0.21875 C 6.457031 -0.0703125 6.28125 0 6.0625 0 Z M 2.546875 0 "/></g></g></g><g fill="#000000" fill-opacity="1"><g transform="translate(257.991614, 228.465674)"><g><path d="M 2.421875 -7.078125 C 2.203125 -7.078125 2.015625 -7.144531 1.859375 -7.28125 C 1.710938 -7.425781 1.640625 -7.609375 1.640625 -7.828125 L 1.640625 -16.3125 C 1.640625 -16.53125 1.710938 -16.707031 1.859375 -16.84375 C 2.015625 -16.988281 2.203125 -17.0625 2.421875 -17.0625 L 6.15625 -17.0625 C 6.375 -17.0625 6.550781 -16.988281 6.6875 -16.84375 C 6.832031 -16.707031 6.90625 -16.53125 6.90625 -16.3125 L 6.90625 -7.828125 C 6.90625 -7.628906 6.832031 -7.453125 6.6875 -7.296875 C 6.550781 -7.148438 6.375 -7.078125 6.15625 -7.078125 Z M 2.421875 -7.078125 "/></g></g></g><g fill="#000000" fill-opacity="1"><g transform="translate(266.542959, 228.465674)"><g/></g></g><g fill="#000000" fill-opacity="1"><g transform="translate(273.861364, 228.465674)"><g><path d="M 2.984375 0 C 2.785156 0 2.617188 -0.0625 2.484375 -0.1875 C 2.359375 -0.320312 2.296875 -0.488281 2.296875 -0.6875 L 2.296875 -16.375 C 2.296875 -16.570312 2.359375 -16.734375 2.484375 -16.859375 C 2.617188 -16.992188 2.785156 -17.0625 2.984375 -17.0625 L 8.6875 -17.0625 C 10.40625 -17.0625 11.820312 -16.785156 12.9375 -16.234375 C 14.050781 -15.691406 14.878906 -14.878906 15.421875 -13.796875 C 15.972656 -12.722656 16.25 -11.378906 16.25 -9.765625 L 16.25 -0.6875 C 16.25 -0.488281 16.1875 -0.320312 16.0625 -0.1875 C 15.945312 -0.0625 15.78125 0 15.5625 0 Z M 4.875 -2.390625 L 13.59375 -2.390625 L 13.59375 -9.625 C 13.59375 -11.21875 13.191406 -12.457031 12.390625 -13.34375 C 11.597656 -14.226562 10.316406 -14.671875 8.546875 -14.671875 L 4.875 -14.671875 Z M 4.875 -2.390625 "/></g></g></g><g fill="#000000" fill-opacity="1"><g transform="translate(292.261929, 228.465674)"><g><path d="M 2.78125 -6.9375 C 2.582031 -6.9375 2.414062 -7 2.28125 -7.125 C 2.15625 -7.25 2.09375 -7.414062 2.09375 -7.625 L 2.09375 -16.375 C 2.09375 -16.570312 2.15625 -16.734375 2.28125 -16.859375 C 2.414062 -16.992188 2.582031 -17.0625 2.78125 -17.0625 L 4.21875 -17.0625 C 4.414062 -17.0625 4.570312 -16.992188 4.6875 -16.859375 C 4.8125 -16.734375 4.875 -16.570312 4.875 -16.375 L 4.875 -7.625 C 4.875 -7.414062 4.8125 -7.25 4.6875 -7.125 C 4.570312 -7 4.414062 -6.9375 4.21875 -6.9375 Z M 2.78125 -6.9375 "/></g></g></g><g fill="#000000" fill-opacity="1"><g transform="translate(299.251751, 228.465674)"><g><path d="M 2.03125 0 C 1.832031 0 1.664062 -0.0625 1.53125 -0.1875 C 1.40625 -0.320312 1.34375 -0.488281 1.34375 -0.6875 L 1.34375 -1.703125 C 1.34375 -1.898438 1.40625 -2.0625 1.53125 -2.1875 C 1.664062 -2.320312 1.832031 -2.390625 2.03125 -2.390625 L 10.453125 -2.390625 L 10.453125 -0.5625 C 10.453125 -0.363281 10.382812 -0.21875 10.25 -0.125 C 10.125 -0.0390625 9.960938 0 9.765625 0 Z M 8.640625 0 C 8.429688 0 8.269531 -0.0625 8.15625 -0.1875 C 8.050781 -0.320312 7.984375 -0.488281 7.953125 -0.6875 L 7.375 -9.921875 C 7.332031 -10.890625 7.253906 -11.734375 7.140625 -12.453125 C 7.035156 -13.171875 6.800781 -13.726562 6.4375 -14.125 C 6.070312 -14.53125 5.457031 -14.734375 4.59375 -14.734375 L 3.375 -14.734375 C 3.175781 -14.734375 3.007812 -14.796875 2.875 -14.921875 C 2.75 -15.046875 2.6875 -15.210938 2.6875 -15.421875 L 2.6875 -16.4375 C 2.6875 -16.632812 2.75 -16.796875 2.875 -16.921875 C 3.007812 -17.054688 3.175781 -17.125 3.375 -17.125 L 4.625 -17.125 C 5.757812 -17.125 6.675781 -16.957031 7.375 -16.625 C 8.070312 -16.289062 8.613281 -15.8125 9 -15.1875 C 9.394531 -14.5625 9.675781 -13.8125 9.84375 -12.9375 C 10.007812 -12.0625 10.125 -11.085938 10.1875 -10.015625 L 10.75 -0.6875 C 10.769531 -0.488281 10.707031 -0.320312 10.5625 -0.1875 C 10.425781 -0.0625 10.257812 0 10.0625 0 Z M 8.640625 0 "/></g></g></g><g fill="#000000" fill-opacity="1"><g transform="translate(311.409267, 228.465674)"><g><path d="M 2.984375 0 C 2.785156 0 2.617188 -0.0625 2.484375 -0.1875 C 2.359375 -0.320312 2.296875 -0.488281 2.296875 -0.6875 L 2.296875 -16.375 C 2.296875 -16.570312 2.359375 -16.734375 2.484375 -16.859375 C 2.617188 -16.992188 2.785156 -17.0625 2.984375 -17.0625 L 4.390625 -17.0625 C 4.609375 -17.0625 4.773438 -16.992188 4.890625 -16.859375 C 5.015625 -16.734375 5.078125 -16.570312 5.078125 -16.375 L 5.078125 -0.6875 C 5.078125 -0.488281 5.015625 -0.320312 4.890625 -0.1875 C 4.773438 -0.0625 4.609375 0 4.390625 0 Z M 2.984375 0 "/></g></g></g><g fill="#000000" fill-opacity="1"><g transform="translate(318.787409, 228.465674)"><g><path d="M 2.984375 5.703125 C 2.785156 5.703125 2.617188 5.632812 2.484375 5.5 C 2.359375 5.375 2.296875 5.210938 2.296875 5.015625 L 2.296875 -10.671875 C 2.296875 -10.867188 2.359375 -11.03125 2.484375 -11.15625 C 2.617188 -11.289062 2.785156 -11.359375 2.984375 -11.359375 L 4.296875 -11.359375 C 4.515625 -11.359375 4.679688 -11.289062 4.796875 -11.15625 C 4.921875 -11.03125 4.984375 -10.867188 4.984375 -10.671875 L 4.984375 5.015625 C 4.984375 5.210938 4.921875 5.375 4.796875 5.5 C 4.679688 5.632812 4.515625 5.703125 4.296875 5.703125 Z M 8.71875 0.265625 C 8.539062 0.328125 8.375 0.300781 8.21875 0.1875 C 8.070312 0.0820312 8 -0.0664062 8 -0.265625 L 8 -1.640625 C 8 -1.816406 8.050781 -1.972656 8.15625 -2.109375 C 8.269531 -2.253906 8.4375 -2.367188 8.65625 -2.453125 L 9.796875 -2.890625 C 10.597656 -3.234375 11.320312 -3.644531 11.96875 -4.125 C 12.613281 -4.601562 13.117188 -5.257812 13.484375 -6.09375 C 13.859375 -6.925781 14.046875 -8.019531 14.046875 -9.375 C 14.046875 -10.675781 13.882812 -11.707031 13.5625 -12.46875 C 13.238281 -13.238281 12.710938 -13.785156 11.984375 -14.109375 C 11.265625 -14.441406 10.285156 -14.609375 9.046875 -14.609375 L 2.984375 -14.609375 C 2.785156 -14.609375 2.617188 -14.671875 2.484375 -14.796875 C 2.359375 -14.929688 2.296875 -15.097656 2.296875 -15.296875 L 2.296875 -16.375 C 2.296875 -16.570312 2.359375 -16.734375 2.484375 -16.859375 C 2.617188 -16.992188 2.785156 -17.0625 2.984375 -17.0625 L 9.4375 -17.0625 C 11.269531 -17.0625 12.71875 -16.800781 13.78125 -16.28125 C 14.851562 -15.757812 15.625 -14.925781 16.09375 -13.78125 C 16.5625 -12.632812 16.796875 -11.140625 16.796875 -9.296875 C 16.796875 -7.898438 16.601562 -6.691406 16.21875 -5.671875 C 15.84375 -4.660156 15.332031 -3.796875 14.6875 -3.078125 C 14.039062 -2.359375 13.3125 -1.765625 12.5 -1.296875 C 11.695312 -0.828125 10.859375 -0.445312 9.984375 -0.15625 Z M 8.71875 0.265625 "/></g></g></g><g fill="#5ce1e6" fill-opacity="1"><g transform="translate(80.342302, 183.497101)"><g><path d="M 3.109375 0 L 3.109375 -44.671875 L 12.3125 -44.671875 L 12.3125 -23.84375 L 12.40625 -23.84375 C 14.800781 -26.226562 17.347656 -27.421875 20.046875 -27.421875 C 21.359375 -27.421875 22.664062 -27.25 23.96875 -26.90625 C 25.269531 -26.5625 26.515625 -26.023438 27.703125 -25.296875 C 28.898438 -24.566406 29.867188 -23.535156 30.609375 -22.203125 C 31.359375 -20.867188 31.734375 -19.320312 31.734375 -17.5625 L 31.734375 0 L 22.546875 0 L 22.546875 -15.0625 C 22.546875 -16.445312 22.101562 -17.65625 21.21875 -18.6875 C 20.332031 -19.726562 19.179688 -20.25 17.765625 -20.25 C 16.378906 -20.25 15.125 -19.710938 14 -18.640625 C 12.875 -17.566406 12.3125 -16.375 12.3125 -15.0625 L 12.3125 0 Z M 3.109375 0 "/></g></g></g><g fill="#5ce1e6" fill-opacity="1"><g transform="translate(114.672667, 183.497101)"><g><path d="M 30.078125 -12.046875 L 10.75 -12.046875 C 10.75 -10.179688 11.351562 -8.796875 12.5625 -7.890625 C 13.78125 -6.992188 15.097656 -6.546875 16.515625 -6.546875 C 18.003906 -6.546875 19.179688 -6.742188 20.046875 -7.140625 C 20.910156 -7.535156 21.898438 -8.320312 23.015625 -9.5 L 29.65625 -6.1875 C 26.882812 -1.539062 22.28125 0.78125 15.84375 0.78125 C 11.820312 0.78125 8.375 -0.59375 5.5 -3.34375 C 2.625 -6.101562 1.1875 -9.421875 1.1875 -13.296875 C 1.1875 -17.171875 2.625 -20.492188 5.5 -23.265625 C 8.375 -26.035156 11.820312 -27.421875 15.84375 -27.421875 C 20.0625 -27.421875 23.492188 -26.195312 26.140625 -23.75 C 28.796875 -21.3125 30.125 -17.828125 30.125 -13.296875 C 30.125 -12.671875 30.109375 -12.253906 30.078125 -12.046875 Z M 11.015625 -17.140625 L 21.140625 -17.140625 C 20.929688 -18.523438 20.382812 -19.585938 19.5 -20.328125 C 18.613281 -21.078125 17.476562 -21.453125 16.09375 -21.453125 C 14.570312 -21.453125 13.359375 -21.050781 12.453125 -20.25 C 11.554688 -19.457031 11.078125 -18.421875 11.015625 -17.140625 Z M 11.015625 -17.140625 "/></g></g></g><g fill="#5ce1e6" fill-opacity="1"><g transform="translate(145.990679, 183.497101)"><g><path d="M 9.875 -26.640625 L 16.359375 -12.15625 L 22.859375 -26.640625 L 33.765625 -26.640625 L 19.484375 0 L 13.25 0 L -1.03125 -26.640625 Z M 9.875 -26.640625 "/></g></g></g><g fill="#5ce1e6" fill-opacity="1"><g transform="translate(178.710998, 183.497101)"><g><path d="M 3.109375 0 L 3.109375 -26.640625 L 12.3125 -26.640625 L 12.3125 -22.796875 L 12.40625 -22.796875 C 12.476562 -22.941406 12.59375 -23.113281 12.75 -23.3125 C 12.90625 -23.519531 13.242188 -23.882812 13.765625 -24.40625 C 14.285156 -24.925781 14.835938 -25.394531 15.421875 -25.8125 C 16.015625 -26.226562 16.773438 -26.597656 17.703125 -26.921875 C 18.640625 -27.253906 19.59375 -27.421875 20.5625 -27.421875 C 21.570312 -27.421875 22.5625 -27.28125 23.53125 -27 C 24.5 -26.726562 25.207031 -26.453125 25.65625 -26.171875 L 26.390625 -25.765625 L 22.546875 -17.96875 C 21.398438 -18.9375 19.804688 -19.421875 17.765625 -19.421875 C 16.648438 -19.421875 15.695312 -19.175781 14.90625 -18.6875 C 14.113281 -18.207031 13.550781 -17.617188 13.21875 -16.921875 C 12.882812 -16.234375 12.648438 -15.644531 12.515625 -15.15625 C 12.378906 -14.675781 12.3125 -14.296875 12.3125 -14.015625 L 12.3125 0 Z M 3.109375 0 "/></g></g></g><g fill="#5ce1e6" fill-opacity="1"><g transform="translate(204.575626, 183.497101)"><g><path d="M 11.796875 -26.640625 L 11.796875 -13.96875 C 11.796875 -11.34375 12.191406 -9.472656 12.984375 -8.359375 C 13.773438 -7.253906 15.125 -6.703125 17.03125 -6.703125 C 18.9375 -6.703125 20.285156 -7.253906 21.078125 -8.359375 C 21.878906 -9.472656 22.28125 -11.34375 22.28125 -13.96875 L 22.28125 -26.640625 L 31.46875 -26.640625 L 31.46875 -11.734375 C 31.46875 -7.304688 30.316406 -4.113281 28.015625 -2.15625 C 25.710938 -0.195312 22.050781 0.78125 17.03125 0.78125 C 12.007812 0.78125 8.347656 -0.195312 6.046875 -2.15625 C 3.742188 -4.113281 2.59375 -7.304688 2.59375 -11.734375 L 2.59375 -26.640625 Z M 11.796875 -26.640625 "/></g></g></g><g fill="#5ce1e6" fill-opacity="1"><g transform="translate(238.646314, 183.497101)"><g><path d="M 4.671875 -26.640625 L 4.671875 -36.5625 L 13.875 -36.5625 L 13.875 -26.640625 L 19.484375 -26.640625 L 19.484375 -19.625 L 13.875 -19.625 L 13.875 -11.171875 C 13.875 -8.710938 14.5625 -7.484375 15.9375 -7.484375 C 16.289062 -7.484375 16.65625 -7.550781 17.03125 -7.6875 C 17.414062 -7.820312 17.710938 -7.960938 17.921875 -8.109375 L 18.234375 -8.3125 L 20.515625 -0.890625 C 18.546875 0.222656 16.296875 0.78125 13.765625 0.78125 C 12.035156 0.78125 10.546875 0.476562 9.296875 -0.125 C 8.046875 -0.726562 7.097656 -1.539062 6.453125 -2.5625 C 5.816406 -3.59375 5.359375 -4.671875 5.078125 -5.796875 C 4.804688 -6.921875 4.671875 -8.125 4.671875 -9.40625 L 4.671875 -19.625 L 0.828125 -19.625 L 0.828125 -26.640625 Z M 4.671875 -26.640625 "/></g></g></g><g fill="#5ce1e6" fill-opacity="1"><g transform="translate(259.161435, 183.497101)"><g><path d="M 4.921875 -3.296875 C 2.429688 -6.015625 1.1875 -9.347656 1.1875 -13.296875 C 1.1875 -17.242188 2.429688 -20.582031 4.921875 -23.3125 C 7.421875 -26.050781 10.59375 -27.421875 14.4375 -27.421875 C 17.96875 -27.421875 20.878906 -26.3125 23.171875 -24.09375 L 23.171875 -26.640625 L 32.359375 -26.640625 L 32.359375 0 L 23.265625 0 L 23.265625 -3.015625 L 23.171875 -3.015625 C 20.878906 -0.484375 17.96875 0.78125 14.4375 0.78125 C 10.59375 0.78125 7.421875 -0.578125 4.921875 -3.296875 Z M 12.75 -17.8125 C 11.550781 -16.632812 10.953125 -15.128906 10.953125 -13.296875 C 10.953125 -11.460938 11.523438 -9.960938 12.671875 -8.796875 C 13.816406 -7.640625 15.320312 -7.0625 17.1875 -7.0625 C 18.988281 -7.0625 20.46875 -7.648438 21.625 -8.828125 C 22.789062 -10.003906 23.375 -11.492188 23.375 -13.296875 C 23.375 -15.128906 22.773438 -16.632812 21.578125 -17.8125 C 20.378906 -18.988281 18.914062 -19.578125 17.1875 -19.578125 C 15.425781 -19.578125 13.945312 -18.988281 12.75 -17.8125 Z M 12.75 -17.8125 "/></g></g></g></svg>