<svg width="30" height="30" viewBox="0 0 30 30" fill="none" xmlns="http://www.w3.org/2000/svg">
<path d="M25.0333 24.159C25.4755 24.0669 25.7385 23.6058 25.5436 23.1983C24.8088 21.6625 23.5313 20.3124 21.8485 19.3082C19.8838 18.1356 17.4765 17.5 15 17.5C12.5235 17.5 10.1161 18.1356 8.1514 19.3082C6.46867 20.3124 5.19111 21.6625 4.45634 23.1983C4.26139 23.6058 4.52444 24.0668 4.96665 24.159L8.87932 24.9744C12.9164 25.8158 17.0835 25.8158 21.1206 24.9744L25.0333 24.159Z" fill="#FF0000"/>
<path d="M21.25 10C21.25 13.4518 18.4518 16.25 15 16.25C11.5482 16.25 8.75 13.4518 8.75 10C8.75 6.54822 11.5482 3.75 15 3.75C18.4518 3.75 21.25 6.54822 21.25 10Z" fill="#FF0000"/>
</svg>
