<svg xmlns="http://www.w3.org/2000/svg" xmlns:xlink="http://www.w3.org/1999/xlink" width="378" zoomAndPan="magnify" viewBox="0 0 283.5 283.500005" height="378" preserveAspectRatio="xMidYMid meet" version="1.0"><defs><clipPath id="54effd5608"><path d="M 0 0 L 283 0 L 283 283 L 0 283 Z M 0 0 " clip-rule="nonzero"/></clipPath><clipPath id="4508557d02"><path d="M 141.5 0 L 155.226562 11.609375 L 171.082031 3.09375 L 182.082031 17.289062 L 199.371094 12.234375 L 207.164062 28.394531 L 225.128906 27.023438 L 229.375 44.441406 L 247.234375 46.816406 L 247.742188 64.734375 L 264.71875 70.75 L 261.472656 88.378906 L 276.816406 97.773438 L 269.953125 114.347656 L 283 126.710938 L 272.824219 141.5 L 283 156.292969 L 269.953125 168.65625 L 276.816406 185.226562 L 261.472656 194.621094 L 264.71875 212.25 L 247.742188 218.269531 L 247.234375 236.183594 L 229.375 238.558594 L 225.128906 255.976562 L 207.164062 254.609375 L 199.371094 270.769531 L 182.082031 265.714844 L 171.082031 279.910156 L 155.226562 271.390625 L 141.5 283 L 127.773438 271.390625 L 111.917969 279.910156 L 100.917969 265.714844 L 83.628906 270.769531 L 75.839844 254.609375 L 57.871094 255.976562 L 53.628906 238.558594 L 35.765625 236.183594 L 35.257812 218.269531 L 18.28125 212.25 L 21.53125 194.621094 L 6.183594 185.226562 L 13.046875 168.65625 L 0 156.292969 L 10.175781 141.5 L 0 126.710938 L 13.046875 114.347656 L 6.183594 97.773438 L 21.53125 88.378906 L 18.28125 70.75 L 35.257812 64.734375 L 35.765625 46.816406 L 53.628906 44.441406 L 57.871094 27.023438 L 75.839844 28.394531 L 83.628906 12.234375 L 100.917969 17.289062 L 111.917969 3.09375 L 127.773438 11.609375 Z M 141.5 0 " clip-rule="nonzero"/></clipPath></defs><g clip-path="url(#54effd5608)"><g clip-path="url(#4508557d02)"><path fill="#ffffff" d="M 0 0 L 283 0 L 283 283 L 0 283 Z M 0 0 " fill-opacity="1" fill-rule="nonzero"/></g></g></svg>